<mxfile host="app.diagrams.net" agent="Mozilla/5.0 (Windows NT 10.0; Win64; x64) AppleWebKit/537.36 (KHTML, like Gecko) Chrome/131.0.0.0 Safari/537.36 Edg/131.0.0.0" version="24.8.6">
  <diagram name="Page-1" id="4gMhcvFq-Wnpv-Mogai-">
    <mxGraphModel dx="737" dy="1100" grid="1" gridSize="10" guides="1" tooltips="1" connect="1" arrows="1" fold="1" page="1" pageScale="1" pageWidth="850" pageHeight="1100" math="0" shadow="0">
      <root>
        <mxCell id="0" />
        <mxCell id="1" parent="0" />
        <mxCell id="N7GHGZfDo_azNVq86Xap-15" style="edgeStyle=orthogonalEdgeStyle;rounded=0;orthogonalLoop=1;jettySize=auto;html=1;entryX=0;entryY=0.5;entryDx=0;entryDy=0;" edge="1" parent="1" source="N7GHGZfDo_azNVq86Xap-2" target="N7GHGZfDo_azNVq86Xap-3">
          <mxGeometry relative="1" as="geometry" />
        </mxCell>
        <mxCell id="N7GHGZfDo_azNVq86Xap-2" value="Relasi 1 (Head)" style="shape=process;whiteSpace=wrap;html=1;backgroundOutline=1;" vertex="1" parent="1">
          <mxGeometry x="190" y="390" width="120" height="60" as="geometry" />
        </mxCell>
        <mxCell id="N7GHGZfDo_azNVq86Xap-16" style="edgeStyle=orthogonalEdgeStyle;rounded=0;orthogonalLoop=1;jettySize=auto;html=1;entryX=0;entryY=0.5;entryDx=0;entryDy=0;" edge="1" parent="1" source="N7GHGZfDo_azNVq86Xap-3" target="N7GHGZfDo_azNVq86Xap-4">
          <mxGeometry relative="1" as="geometry" />
        </mxCell>
        <mxCell id="N7GHGZfDo_azNVq86Xap-3" value="Relasi 2" style="shape=process;whiteSpace=wrap;html=1;backgroundOutline=1;" vertex="1" parent="1">
          <mxGeometry x="400" y="390" width="120" height="60" as="geometry" />
        </mxCell>
        <mxCell id="N7GHGZfDo_azNVq86Xap-4" value="Relasi 3" style="shape=process;whiteSpace=wrap;html=1;backgroundOutline=1;" vertex="1" parent="1">
          <mxGeometry x="620" y="390" width="120" height="60" as="geometry" />
        </mxCell>
        <mxCell id="N7GHGZfDo_azNVq86Xap-17" style="edgeStyle=orthogonalEdgeStyle;rounded=0;orthogonalLoop=1;jettySize=auto;html=1;entryX=0;entryY=0.5;entryDx=0;entryDy=0;" edge="1" parent="1" source="N7GHGZfDo_azNVq86Xap-5" target="N7GHGZfDo_azNVq86Xap-6">
          <mxGeometry relative="1" as="geometry" />
        </mxCell>
        <mxCell id="N7GHGZfDo_azNVq86Xap-25" style="edgeStyle=orthogonalEdgeStyle;rounded=0;orthogonalLoop=1;jettySize=auto;html=1;" edge="1" parent="1" source="N7GHGZfDo_azNVq86Xap-5" target="N7GHGZfDo_azNVq86Xap-2">
          <mxGeometry relative="1" as="geometry" />
        </mxCell>
        <mxCell id="N7GHGZfDo_azNVq86Xap-5" value="Dokter 1 (Head)" style="shape=process;whiteSpace=wrap;html=1;backgroundOutline=1;" vertex="1" parent="1">
          <mxGeometry x="190" y="210" width="120" height="60" as="geometry" />
        </mxCell>
        <mxCell id="N7GHGZfDo_azNVq86Xap-20" style="edgeStyle=orthogonalEdgeStyle;rounded=0;orthogonalLoop=1;jettySize=auto;html=1;entryX=0;entryY=0.5;entryDx=0;entryDy=0;" edge="1" parent="1" source="N7GHGZfDo_azNVq86Xap-6" target="N7GHGZfDo_azNVq86Xap-7">
          <mxGeometry relative="1" as="geometry" />
        </mxCell>
        <mxCell id="N7GHGZfDo_azNVq86Xap-22" style="edgeStyle=orthogonalEdgeStyle;rounded=0;orthogonalLoop=1;jettySize=auto;html=1;exitX=0;exitY=0;exitDx=0;exitDy=0;entryX=1;entryY=0;entryDx=0;entryDy=0;" edge="1" parent="1" source="N7GHGZfDo_azNVq86Xap-6" target="N7GHGZfDo_azNVq86Xap-5">
          <mxGeometry relative="1" as="geometry">
            <Array as="points">
              <mxPoint x="360" y="210" />
              <mxPoint x="360" y="210" />
            </Array>
          </mxGeometry>
        </mxCell>
        <mxCell id="N7GHGZfDo_azNVq86Xap-6" value="Dokter 2" style="shape=process;whiteSpace=wrap;html=1;backgroundOutline=1;" vertex="1" parent="1">
          <mxGeometry x="400" y="210" width="120" height="60" as="geometry" />
        </mxCell>
        <mxCell id="N7GHGZfDo_azNVq86Xap-21" style="edgeStyle=orthogonalEdgeStyle;rounded=0;orthogonalLoop=1;jettySize=auto;html=1;exitX=0;exitY=0;exitDx=0;exitDy=0;entryX=1;entryY=0;entryDx=0;entryDy=0;" edge="1" parent="1" source="N7GHGZfDo_azNVq86Xap-7" target="N7GHGZfDo_azNVq86Xap-6">
          <mxGeometry relative="1" as="geometry">
            <Array as="points">
              <mxPoint x="570" y="210" />
              <mxPoint x="570" y="210" />
            </Array>
          </mxGeometry>
        </mxCell>
        <mxCell id="N7GHGZfDo_azNVq86Xap-23" style="edgeStyle=orthogonalEdgeStyle;rounded=0;orthogonalLoop=1;jettySize=auto;html=1;" edge="1" parent="1" source="N7GHGZfDo_azNVq86Xap-7" target="N7GHGZfDo_azNVq86Xap-3">
          <mxGeometry relative="1" as="geometry">
            <Array as="points">
              <mxPoint x="680" y="330" />
              <mxPoint x="460" y="330" />
            </Array>
          </mxGeometry>
        </mxCell>
        <mxCell id="N7GHGZfDo_azNVq86Xap-7" value="Dokter 3" style="shape=process;whiteSpace=wrap;html=1;backgroundOutline=1;" vertex="1" parent="1">
          <mxGeometry x="620" y="210" width="120" height="60" as="geometry" />
        </mxCell>
        <mxCell id="N7GHGZfDo_azNVq86Xap-13" style="edgeStyle=orthogonalEdgeStyle;rounded=0;orthogonalLoop=1;jettySize=auto;html=1;" edge="1" parent="1" source="N7GHGZfDo_azNVq86Xap-8" target="N7GHGZfDo_azNVq86Xap-9">
          <mxGeometry relative="1" as="geometry" />
        </mxCell>
        <mxCell id="N7GHGZfDo_azNVq86Xap-27" style="edgeStyle=orthogonalEdgeStyle;rounded=0;orthogonalLoop=1;jettySize=auto;html=1;" edge="1" parent="1" source="N7GHGZfDo_azNVq86Xap-8" target="N7GHGZfDo_azNVq86Xap-2">
          <mxGeometry relative="1" as="geometry" />
        </mxCell>
        <mxCell id="N7GHGZfDo_azNVq86Xap-8" value="Pasien 1 (Head)" style="shape=process;whiteSpace=wrap;html=1;backgroundOutline=1;" vertex="1" parent="1">
          <mxGeometry x="190" y="540" width="120" height="60" as="geometry" />
        </mxCell>
        <mxCell id="N7GHGZfDo_azNVq86Xap-14" style="edgeStyle=orthogonalEdgeStyle;rounded=0;orthogonalLoop=1;jettySize=auto;html=1;entryX=0;entryY=0.5;entryDx=0;entryDy=0;" edge="1" parent="1" source="N7GHGZfDo_azNVq86Xap-9" target="N7GHGZfDo_azNVq86Xap-10">
          <mxGeometry relative="1" as="geometry" />
        </mxCell>
        <mxCell id="N7GHGZfDo_azNVq86Xap-26" style="edgeStyle=orthogonalEdgeStyle;rounded=0;orthogonalLoop=1;jettySize=auto;html=1;entryX=0.5;entryY=1;entryDx=0;entryDy=0;" edge="1" parent="1" source="N7GHGZfDo_azNVq86Xap-9" target="N7GHGZfDo_azNVq86Xap-2">
          <mxGeometry relative="1" as="geometry">
            <Array as="points">
              <mxPoint x="460" y="530" />
              <mxPoint x="360" y="530" />
              <mxPoint x="360" y="480" />
              <mxPoint x="250" y="480" />
            </Array>
          </mxGeometry>
        </mxCell>
        <mxCell id="N7GHGZfDo_azNVq86Xap-9" value="Pasien 2" style="shape=process;whiteSpace=wrap;html=1;backgroundOutline=1;" vertex="1" parent="1">
          <mxGeometry x="400" y="540" width="120" height="60" as="geometry" />
        </mxCell>
        <mxCell id="N7GHGZfDo_azNVq86Xap-24" style="edgeStyle=orthogonalEdgeStyle;rounded=0;orthogonalLoop=1;jettySize=auto;html=1;entryX=0.5;entryY=1;entryDx=0;entryDy=0;" edge="1" parent="1" source="N7GHGZfDo_azNVq86Xap-10" target="N7GHGZfDo_azNVq86Xap-3">
          <mxGeometry relative="1" as="geometry">
            <Array as="points">
              <mxPoint x="680" y="490" />
              <mxPoint x="460" y="490" />
            </Array>
          </mxGeometry>
        </mxCell>
        <mxCell id="N7GHGZfDo_azNVq86Xap-10" value="Pasien 3" style="shape=process;whiteSpace=wrap;html=1;backgroundOutline=1;" vertex="1" parent="1">
          <mxGeometry x="620" y="540" width="120" height="60" as="geometry" />
        </mxCell>
      </root>
    </mxGraphModel>
  </diagram>
</mxfile>
